<svg width="166" height="34" viewBox="0 0 166 34" fill="none" xmlns="http://www.w3.org/2000/svg">
<path d="M53.5086 6.4391V9.93528C52.1451 9.28471 50.8599 8.79934 49.6516 8.48046C48.4433 8.16158 47.2748 8.00149 46.1499 8.00149C44.1951 8.00149 42.6867 8.38057 41.626 9.13743C40.5652 9.8943 40.0354 10.9713 40.0354 12.3672C40.0354 13.5377 40.3882 14.4227 41.0936 15.0207C41.7978 15.6188 43.1344 16.1003 45.102 16.4666L47.271 16.9097C49.9479 17.4181 51.9245 18.3146 53.1982 19.5978C54.4719 20.8823 55.1094 22.5996 55.1094 24.7524C55.1094 27.3201 54.2474 29.2667 52.5235 30.5909C50.7996 31.9164 48.2727 32.5785 44.9429 32.5785C43.6872 32.5785 42.3507 32.4363 40.9346 32.152C39.5185 31.8677 38.0524 31.4489 36.5363 30.8918V27.201C37.9934 28.0181 39.421 28.6328 40.8192 29.0464C42.2173 29.4601 43.5923 29.6675 44.9429 29.6675C46.9926 29.6675 48.5755 29.2654 49.6888 28.4612C50.8022 27.6569 51.3589 26.5095 51.3589 25.0188C51.3589 23.7176 50.9587 22.6995 50.1596 21.967C49.3592 21.2332 48.0483 20.6838 46.223 20.3162L44.0374 19.8898C41.3592 19.357 39.421 18.5233 38.2256 17.3874C37.0276 16.2514 36.4299 14.6724 36.4299 12.649C36.4299 10.3067 37.2559 8.46125 38.9093 7.11272C40.5626 5.7642 42.8394 5.08929 45.7433 5.08929C46.9875 5.08929 48.2561 5.20199 49.5477 5.42611C50.8381 5.65022 52.1605 5.98831 53.5112 6.43782L53.5086 6.4391Z" fill="#D9D9D9"/>
<path d="M57.0283 5.57083H79.4763V8.58804H70.0563V32.0662H66.4482V8.58804H57.027V5.57083H57.0283Z" fill="#D9D9D9"/>
<path d="M129.012 19.6426C129.781 19.9026 130.532 20.4597 131.26 21.3113C131.989 22.1629 132.72 23.3347 133.455 24.8254L137.099 32.0662H133.242L129.847 25.2698C128.969 23.4948 128.12 22.3179 127.295 21.7378C126.472 21.1576 125.35 20.8682 123.927 20.8682H120.018V32.0662H116.427V5.57083H124.533C127.566 5.57083 129.829 6.20347 131.322 7.47004C132.815 8.7366 133.561 10.6461 133.561 13.2022C133.561 14.8709 133.174 16.2553 132.398 17.3554C131.622 18.4555 130.493 19.2187 129.012 19.6439V19.6426ZM120.018 8.51633V17.9214H124.533C126.263 17.9214 127.569 17.5219 128.451 16.724C129.334 15.9262 129.775 14.7518 129.775 13.2009C129.775 11.6501 129.334 10.4834 128.451 9.69581C127.569 8.90821 126.262 8.51633 124.533 8.51633H120.018Z" fill="#D9D9D9"/>
<path d="M141.72 5.57083H147.07L153.843 23.6011L160.65 5.57083H166V32.0662H162.498V8.80063L155.655 26.9731H152.047L145.204 8.80063V32.0662H141.72V5.57083Z" fill="#D9D9D9"/>
<path d="M109.27 0L98.9164 7.87985L103.535 10.0826L97.3374 19.284L109.455 9.94297L103.9 7.17805L109.27 0Z" fill="#D9D9D9"/>
<path d="M111.399 19.0471C111.399 21.9606 110.777 24.5462 109.525 26.813C108.273 29.0797 106.52 30.8432 104.263 32.1046C102.011 33.3725 99.4205 34 96.5101 34C93.5997 34 91.0459 33.3725 88.7948 32.1046C86.5373 30.8432 84.7775 29.0785 83.5128 26.813C82.2494 24.5462 81.6145 21.9606 81.6145 19.0471C81.6145 16.1336 82.2494 13.5544 83.5128 11.2877C84.7762 9.02091 86.5373 7.25745 88.7948 5.99601C91.0459 4.72817 93.6241 4.10065 96.5101 4.10065C96.8051 4.10065 97.095 4.10705 97.3772 4.11986C97.5285 4.12626 97.6786 4.13266 97.83 4.15187C98.3892 4.28378 98.8048 4.7922 98.8048 5.38898C98.8048 6.07285 98.2635 6.62609 97.5914 6.65683C97.4913 6.64402 97.39 6.63762 97.29 6.63762C97.2835 6.63121 97.2771 6.63121 97.2707 6.63121C97.0193 6.61841 96.7679 6.612 96.5101 6.612C94.0897 6.612 91.9515 7.13323 90.0968 8.17568C88.2356 9.22453 86.79 10.687 85.7395 12.5645C84.6954 14.4483 84.1734 16.6075 84.1734 19.0497C84.1734 21.4919 84.6954 23.6267 85.7395 25.5221C86.79 27.4123 88.2356 28.8812 90.0968 29.9288C91.9515 30.9713 94.0897 31.4925 96.5101 31.4925C98.9305 31.4925 101.075 30.9713 102.943 29.9288C104.817 28.88 106.269 27.4239 107.319 25.54C108.363 23.6562 108.885 21.497 108.885 19.0484C108.885 17.2158 108.59 15.5458 108.005 14.0257C107.999 14.0193 107.993 14.0065 107.993 14.0001C107.96 13.9245 107.93 13.8426 107.893 13.7683V13.7555C107.855 13.6428 107.836 13.5173 107.836 13.3918C107.836 12.6823 108.408 12.1111 109.119 12.1111C109.602 12.1111 110.024 12.3813 110.239 12.7835C110.239 12.7835 110.239 12.7856 110.239 12.7899C110.282 12.8782 110.314 12.9589 110.345 13.0473C110.351 13.0537 110.351 13.0601 110.358 13.0729C111.056 14.8876 111.402 16.8777 111.402 19.0497L111.399 19.0471Z" fill="#D9D9D9"/>
<path d="M26.8489 0L16.7972 7.64881L21.2814 9.78536L15.2643 18.7156L27.0282 9.64988L21.635 6.9677L26.8489 0Z" fill="#C57642"/>
<path d="M28.9161 18.4857C28.9161 21.3133 28.3121 23.8227 27.0967 26.0226C25.8814 28.2225 24.1791 29.934 21.9875 31.1583C19.802 32.3887 17.2866 32.9978 14.4611 32.9978C11.6357 32.9978 9.15636 32.3887 6.97094 31.1583C4.77929 29.934 3.0708 28.2213 1.84298 26.0226C0.616402 23.8227 0 21.3133 0 18.4857C0 15.6581 0.616402 13.1549 1.84298 10.9549C3.06955 8.75499 4.77929 7.04352 6.97094 5.81926C9.15636 4.58879 11.6593 3.97977 14.4611 3.97977C14.7476 3.97977 15.029 3.98598 15.3029 3.99841C15.4499 4.00463 15.5956 4.01084 15.7425 4.02948C16.2854 4.1575 16.6889 4.65093 16.6889 5.23013C16.6889 5.89383 16.1634 6.43077 15.5109 6.4606C15.4138 6.44817 15.3154 6.44195 15.2183 6.44195C15.212 6.43574 15.2058 6.43574 15.1996 6.43574C14.9555 6.42331 14.7114 6.41709 14.4611 6.41709C12.1113 6.41709 10.0355 6.92296 8.23487 7.93468C6.42801 8.95261 5.0246 10.372 4.00474 12.1941C2.9911 14.0224 2.48428 16.1179 2.48428 18.4881C2.48428 20.8584 2.9911 22.9303 4.00474 24.7698C5.0246 26.6043 6.42801 28.0299 8.23487 29.0466C10.0355 30.0583 12.1113 30.5642 14.4611 30.5642C16.8109 30.5642 18.893 30.0583 20.7061 29.0466C22.5254 28.0286 23.935 26.6155 24.9549 24.7872C25.9685 22.9589 26.4754 20.8633 26.4754 18.4869C26.4754 16.7083 26.189 15.0876 25.6211 13.6122C25.6149 13.606 25.6087 13.5936 25.6087 13.5874C25.5775 13.5141 25.5476 13.4345 25.5115 13.3624V13.35C25.4754 13.2406 25.4567 13.1188 25.4567 12.997C25.4567 12.3084 26.0121 11.7541 26.702 11.7541C27.1715 11.7541 27.5812 12.0164 27.7891 12.4066C27.7891 12.4066 27.7891 12.4087 27.7891 12.4128C27.8314 12.4986 27.8626 12.5769 27.8925 12.6627C27.8987 12.6689 27.8987 12.6751 27.9049 12.6875C28.5823 14.4487 28.9186 16.3802 28.9186 18.4881L28.9161 18.4857Z" fill="#C57642"/>
</svg>
